<svg width="1439" height="668" viewBox="0 0 1439 668" fill="none" xmlns="http://www.w3.org/2000/svg">
<path d="M3.73145 247.39C70.7314 231.39 248.731 187.89 242.731 331.89C236.731 475.89 320.731 561.89 501.731 500.89C682.731 439.89 857.231 437.39 1094.73 586.39C1332.23 735.39 1535.73 615.89 1358.23 459.89C1180.73 303.89 1324.23 46.89 1410.23 12.39" stroke="#101010" stroke-width="26"/>
<path d="M24.1047 233.374C25.4152 233.075 26.5995 233.052 27.6577 233.303C28.7315 233.551 29.6216 234.038 30.3282 234.763C31.0468 235.469 31.5303 236.368 31.7789 237.461C32.0274 238.553 31.9823 239.58 31.6436 240.543C31.3169 241.487 30.7232 242.304 29.8624 242.992C29.0173 243.676 27.9394 244.168 26.6289 244.466L18.7426 246.261L18.1355 243.593L25.9048 241.825C26.9657 241.583 27.734 241.138 28.2097 240.488C28.701 239.835 28.8454 239.063 28.643 238.174C28.4407 237.285 27.9767 236.652 27.2511 236.276C26.5411 235.896 25.6556 235.827 24.5948 236.068L17.1296 237.767L18.1588 235.908L21.8973 252.336L18.8083 253.039L14.8142 235.488L24.1047 233.374Z" fill="#C2FF4E"/>
<path d="M47.9889 236.148L48.5199 238.734L36.201 241.263L35.6699 238.677L47.9889 236.148ZM37.9808 239.55L38.352 247.682L36.5137 246.246L50.1962 243.437L50.7465 246.117L35.3713 249.274L34.9716 240.168L31.7506 231.642L47.0083 228.509L47.5586 231.189L33.9937 233.974L35.1175 231.93L37.9808 239.55Z" fill="#C2FF4E"/>
<path d="M55.7397 235.125L62.952 233.874C63.9925 233.693 64.7712 233.315 65.2883 232.738C65.8211 232.158 66.0164 231.459 65.8742 230.639C65.7293 229.803 65.3098 229.21 64.6157 228.86C63.9346 228.491 63.0738 228.396 62.0333 228.577L54.3717 229.906L55.4634 227.914L58.3752 244.703L55.2538 245.245L52.178 227.509L61.8496 225.832C63.095 225.616 64.2224 225.656 65.2318 225.952C66.2542 226.229 67.0953 226.725 67.755 227.438C68.4277 228.134 68.857 229.017 69.0429 230.089C69.2234 231.13 69.1153 232.099 68.7187 232.996C68.3352 233.874 67.7102 234.624 66.8436 235.245C65.99 235.848 64.9405 236.257 63.6951 236.473L56.199 237.773L55.7397 235.125ZM59.4896 235.96L63.1549 235.325L71.6412 242.402L67.905 243.05L59.4896 235.96Z" fill="#C2FF4E"/>
<path d="M74.2717 231.796L87.0888 230.047L87.4653 232.805L74.6482 234.555L74.2717 231.796ZM86.4045 222.195L86.7811 224.953L73.4884 226.768L74.957 224.751L77.2585 241.61L74.1196 242.039L71.6851 224.204L86.4045 222.195Z" fill="#C2FF4E"/>
<path d="M105.192 228.082L105.435 230.711L92.9126 231.869L92.6695 229.24L105.192 228.082ZM94.8701 230.362L94.3439 238.485L92.6748 236.856L106.583 235.57L106.835 238.294L91.2061 239.739L91.8112 230.645L89.5485 221.816L105.058 220.381L105.31 223.106L91.5211 224.381L92.8632 222.473L94.8701 230.362Z" fill="#C2FF4E"/>
<path d="M128.152 230.304C128.041 231.78 127.564 233.101 126.722 234.265C125.896 235.413 124.789 236.322 123.403 236.993C122.016 237.663 120.42 238.028 118.612 238.088C116.598 238.155 114.818 237.822 113.272 237.088C111.727 236.355 110.508 235.307 109.614 233.944C108.72 232.565 108.242 230.948 108.181 229.093C108.119 227.238 108.489 225.601 109.291 224.181C110.092 222.746 111.239 221.611 112.732 220.777C114.225 219.943 115.979 219.493 117.994 219.426C119.801 219.366 121.418 219.625 122.846 220.202C124.274 220.779 125.438 221.613 126.339 222.704C127.256 223.794 127.819 225.08 128.028 226.562L124.838 226.667C124.63 225.714 124.219 224.903 123.604 224.235C123.006 223.566 122.237 223.064 121.297 222.727C120.357 222.374 119.279 222.217 118.064 222.257C116.656 222.304 115.442 222.609 114.42 223.171C113.414 223.732 112.647 224.51 112.12 225.504C111.593 226.498 111.351 227.659 111.395 228.986C111.439 230.313 111.757 231.455 112.349 232.412C112.941 233.369 113.758 234.095 114.798 234.588C115.855 235.082 117.087 235.305 118.495 235.258C119.71 235.218 120.775 234.999 121.691 234.6C122.606 234.202 123.34 233.649 123.893 232.942C124.461 232.219 124.817 231.375 124.962 230.409L128.152 230.304Z" fill="#C2FF4E"/>
<path d="M137.312 221.21L140.477 221.342L139.785 237.864L136.62 237.731L137.312 221.21ZM129.94 219.436L147.972 220.191L147.856 222.973L129.824 222.217L129.94 219.436Z" fill="#C2FF4E"/>
<path d="M181.507 225.763L177.93 243.404L174.967 242.803L178.353 226.103L179.307 226.345L167.722 241.334L164.406 240.662L159.568 222.368L160.542 222.516L157.161 239.193L154.197 238.592L157.774 220.951L162.525 221.914L167.124 239.817L165.571 239.502L176.756 224.799L181.507 225.763Z" fill="#C2FF4E"/>
<path d="M182.786 240.893L183.797 238.48L195.395 243.343L194.383 245.755L182.786 240.893ZM195.852 231.329L196.86 251.27L193.739 249.961L192.997 231.434L194.126 231.907L180.393 244.366L177.272 243.057L192.2 229.798L195.852 231.329Z" fill="#C2FF4E"/>
<path d="M212.629 242.2L215.209 244.038L205.615 257.506L203.034 255.668L212.629 242.2ZM207.419 236.691L222.118 247.163L220.503 249.43L205.803 238.959L207.419 236.691Z" fill="#C2FF4E"/>
<path d="M228.624 271.423C227.385 272.234 226.047 272.661 224.611 272.703C223.197 272.746 221.802 272.423 220.426 271.731C219.05 271.04 217.788 269.996 216.639 268.599C215.359 267.042 214.539 265.427 214.179 263.755C213.82 262.083 213.908 260.478 214.445 258.939C214.994 257.389 215.986 256.026 217.419 254.847C218.853 253.668 220.377 252.964 221.991 252.735C223.617 252.496 225.215 252.715 226.786 253.391C228.357 254.068 229.783 255.184 231.063 256.742C232.211 258.138 232.991 259.578 233.403 261.062C233.816 262.546 233.863 263.978 233.547 265.356C233.241 266.747 232.563 267.977 231.516 269.046L229.489 266.58C230.118 265.834 230.511 265.014 230.667 264.12C230.832 263.238 230.762 262.322 230.457 261.372C230.165 260.411 229.632 259.461 228.86 258.522C227.966 257.434 226.985 256.656 225.916 256.188C224.858 255.732 223.774 255.598 222.665 255.785C221.555 255.972 220.488 256.488 219.462 257.331C218.436 258.174 217.724 259.122 217.325 260.175C216.927 261.227 216.849 262.316 217.092 263.443C217.344 264.581 217.918 265.695 218.812 266.782C219.584 267.722 220.407 268.433 221.28 268.916C222.154 269.399 223.04 269.645 223.937 269.653C224.857 269.663 225.743 269.431 226.596 268.958L228.624 271.423Z" fill="#C2FF4E"/>
<path d="M239.612 269.163L240.858 272.076L224.308 279.154L223.062 276.241L239.612 269.163ZM245.369 282.624L246.615 285.537L230.065 292.615L228.819 289.702L245.369 282.624ZM233.353 273.693L239.035 286.977L236.475 288.072L230.794 274.788L233.353 273.693Z" fill="#C2FF4E"/>
<path d="M232.426 313.752C234.455 313.231 236.924 311.568 238.787 308.628C239.709 307.184 240.269 305.743 240.449 304.357L241.454 304.278C242.313 306.93 244.34 309.443 246.939 310.947C248.251 311.711 249.514 312.165 250.801 312.304L250.88 313.309C248.496 313.906 245.963 315.984 244.369 318.661C243.581 319.975 243.085 321.314 242.902 322.653L241.897 322.732C241.137 320.119 238.525 317.22 235.988 315.879C234.708 315.209 233.547 314.843 232.505 314.757L232.426 313.752Z" fill="#C2FF4E"/>
<path d="M251.432 348.785C251.432 350.129 251.192 351.289 250.712 352.265C250.232 353.257 249.56 354.017 248.696 354.545C247.848 355.089 246.864 355.361 245.744 355.362C244.624 355.362 243.632 355.09 242.768 354.546C241.92 354.018 241.256 353.258 240.776 352.266C240.296 351.29 240.056 350.13 240.056 348.786L240.055 340.698L242.791 340.698L242.792 348.666C242.792 349.754 243.056 350.602 243.584 351.21C244.112 351.834 244.832 352.146 245.744 352.146C246.656 352.145 247.376 351.833 247.904 351.209C248.432 350.601 248.696 349.753 248.696 348.665L248.695 341.009L250.28 342.425L233.432 342.426L233.431 339.258L251.431 339.257L251.432 348.785Z" fill="#C2FF4E"/>
<path d="M244.742 371.816L242.107 371.976L241.342 359.424L243.978 359.263L244.742 371.816ZM242.787 361.427L234.685 360.647L236.365 359.03L237.215 372.972L234.484 373.138L233.529 357.471L242.6 358.361L251.496 356.376L252.443 371.924L249.712 372.09L248.87 358.268L250.735 359.669L242.787 361.427Z" fill="#C2FF4E"/>
<path d="M244.922 377.773L245.876 385.031C246.014 386.078 246.36 386.872 246.916 387.412C247.473 387.968 248.164 388.192 248.989 388.083C249.83 387.973 250.439 387.578 250.818 386.899C251.215 386.233 251.344 385.377 251.206 384.33L250.193 376.62L252.138 377.793L235.243 380.015L234.83 376.874L252.677 374.527L253.957 384.259C254.121 385.512 254.035 386.637 253.698 387.633C253.379 388.644 252.85 389.464 252.11 390.093C251.387 390.737 250.487 391.13 249.408 391.272C248.361 391.409 247.398 391.262 246.518 390.829C245.656 390.41 244.932 389.754 244.347 388.863C243.78 387.986 243.414 386.92 243.249 385.667L242.257 378.124L244.922 377.773ZM243.933 381.486L244.419 385.174L236.999 393.364L236.505 389.604L243.933 381.486Z" fill="#C2FF4E"/>
<path d="M248.127 397.523L250.894 410.16L248.174 410.755L245.408 398.118L248.127 397.523ZM258.666 408.852L255.946 409.447L253.077 396.341L255.205 397.644L238.583 401.283L237.905 398.188L255.489 394.339L258.666 408.852Z" fill="#C2FF4E"/>
<path d="M256.191 426.836L253.673 427.629L249.898 415.633L252.416 414.84L256.191 426.836ZM251.784 417.228L243.732 418.428L244.973 416.453L249.166 429.777L246.556 430.598L241.844 415.626L250.861 414.298L259.014 410.223L263.69 425.08L261.08 425.902L256.923 412.692L259.071 413.602L251.784 417.228Z" fill="#C2FF4E"/>
<path d="M262.497 449.615C261.089 450.073 259.686 450.134 258.289 449.798C256.913 449.47 255.652 448.791 254.505 447.764C253.358 446.736 252.414 445.397 251.672 443.749C250.845 441.91 250.477 440.137 250.568 438.429C250.659 436.721 251.165 435.195 252.087 433.851C253.023 432.499 254.337 431.443 256.029 430.681C257.722 429.92 259.377 429.64 260.994 429.842C262.626 430.038 264.112 430.668 265.45 431.732C266.789 432.796 267.872 434.248 268.699 436.086C269.441 437.735 269.817 439.329 269.825 440.869C269.834 442.409 269.505 443.803 268.838 445.051C268.178 446.313 267.202 447.322 265.911 448.079L264.601 445.168C265.404 444.613 265.998 443.925 266.383 443.103C266.774 442.295 266.947 441.393 266.901 440.396C266.871 439.392 266.606 438.335 266.107 437.226C265.529 435.942 264.786 434.935 263.878 434.203C262.976 433.486 261.965 433.072 260.845 432.962C259.726 432.852 258.56 433.069 257.349 433.614C256.138 434.159 255.202 434.887 254.542 435.798C253.882 436.71 253.521 437.74 253.46 438.891C253.405 440.056 253.667 441.281 254.245 442.565C254.744 443.673 255.351 444.575 256.068 445.271C256.784 445.966 257.574 446.435 258.438 446.678C259.323 446.929 260.239 446.938 261.187 446.704L262.497 449.615Z" fill="#C2FF4E"/>
<path d="M275.116 452.22L276.781 454.915L262.714 463.607L261.048 460.912L275.116 452.22ZM272.45 445.121L281.937 460.474L279.569 461.938L270.082 446.584L272.45 445.121Z" fill="#C2FF4E"/>
<path d="M302.692 483.102L289.88 495.745L287.756 493.593L299.884 481.623L300.541 482.358L282.564 488.331L280.187 485.923L286.381 468.042L287.106 468.709L274.994 480.661L272.87 478.509L285.682 465.865L289.087 469.316L282.914 486.738L281.801 485.611L299.287 479.651L302.692 483.102Z" fill="#C2FF4E"/>
<path d="M297.592 496.23L299.06 494.066L309.467 501.127L307.998 503.292L297.592 496.23ZM312.292 489.442L309.334 509.188L306.534 507.287L309.473 488.979L310.486 489.666L294.559 499.161L291.758 497.261L309.015 487.218L312.292 489.442Z" fill="#C2FF4E"/>
<path d="M325.013 498.465L327.873 499.827L320.767 514.758L317.906 513.396L325.013 498.465ZM318.924 493.946L335.22 501.702L334.024 504.216L317.728 496.46L318.924 493.946Z" fill="#C2FF4E"/>
<path d="M350.84 517.956C350.253 519.316 349.372 520.409 348.197 521.235C347.041 522.051 345.699 522.55 344.169 522.731C342.64 522.913 341.011 522.738 339.283 522.205C337.357 521.611 335.783 520.716 334.561 519.519C333.339 518.322 332.528 516.934 332.128 515.354C331.732 513.758 331.808 512.074 332.354 510.3C332.901 508.527 333.785 507.1 335.005 506.019C336.23 504.923 337.684 504.225 339.368 503.923C341.051 503.622 342.856 503.768 344.783 504.361C346.511 504.894 347.955 505.666 349.117 506.677C350.279 507.688 351.108 508.856 351.604 510.18C352.115 511.51 352.228 512.909 351.942 514.378L348.892 513.438C349.006 512.469 348.882 511.568 348.519 510.737C348.171 509.909 347.608 509.183 346.83 508.558C346.056 507.918 345.088 507.419 343.926 507.061C342.58 506.646 341.333 506.538 340.183 506.736C339.049 506.939 338.071 507.424 337.248 508.192C336.426 508.96 335.819 509.978 335.428 511.247C335.037 512.517 334.965 513.7 335.213 514.798C335.46 515.895 335.996 516.847 336.819 517.653C337.657 518.464 338.749 519.077 340.095 519.492C341.257 519.85 342.335 519.99 343.331 519.911C344.326 519.833 345.2 519.55 345.953 519.062C346.726 518.564 347.338 517.882 347.789 517.016L350.84 517.956Z" fill="#C2FF4E"/>
<path d="M356.472 508.047L359.6 508.549L356.744 526.321L353.616 525.819L356.472 508.047ZM370.926 510.369L374.054 510.872L371.198 528.644L368.07 528.141L370.926 510.369ZM356.959 515.757L371.224 518.05L370.782 520.799L356.517 518.506L356.959 515.757Z" fill="#C2FF4E"/>
<path d="M395.49 530.768C395.117 528.707 393.637 526.124 390.84 524.053C389.466 523.03 388.07 522.367 386.7 522.087L386.693 521.079C389.401 520.414 392.054 518.574 393.742 516.091C394.599 514.838 395.143 513.61 395.375 512.337L396.383 512.33C396.806 514.752 398.695 517.428 401.25 519.212C402.504 520.092 403.803 520.684 405.125 520.964L405.131 521.972C402.471 522.54 399.39 524.936 397.869 527.369C397.109 528.598 396.66 529.729 396.498 530.762L395.49 530.768Z" fill="#C2FF4E"/>
<path d="M428.477 509.434C429.81 509.263 430.991 509.354 432.02 509.706C433.065 510.056 433.904 510.626 434.538 511.416C435.185 512.188 435.58 513.129 435.722 514.24C435.865 515.351 435.721 516.37 435.291 517.296C434.875 518.204 434.206 518.959 433.283 519.561C432.376 520.162 431.256 520.547 429.922 520.718L421.9 521.746L421.552 519.032L429.456 518.019C430.535 517.881 431.342 517.511 431.878 516.91C432.43 516.307 432.648 515.554 432.532 514.649C432.416 513.744 432.016 513.07 431.329 512.625C430.659 512.179 429.785 512.025 428.705 512.163L421.112 513.136L422.315 511.385L424.456 528.096L421.313 528.499L419.026 510.645L428.477 509.434Z" fill="#C2FF4E"/>
<path d="M453.5 512.941L453.994 515.535L441.64 517.887L441.146 515.294L453.5 512.941ZM443.444 516.2L443.698 524.336L441.881 522.874L455.602 520.261L456.114 522.949L440.695 525.885L440.426 516.774L437.328 508.203L452.629 505.289L453.141 507.977L439.538 510.567L440.691 508.54L443.444 516.2Z" fill="#C2FF4E"/>
<path d="M459.558 512.027L466.668 510.283C467.693 510.031 468.444 509.6 468.92 508.989C469.412 508.374 469.559 507.663 469.36 506.855C469.158 506.031 468.699 505.468 467.982 505.166C467.278 504.845 466.412 504.81 465.387 505.062L457.835 506.914L458.787 504.852L462.847 521.402L459.77 522.156L455.481 504.675L465.015 502.336C466.242 502.035 467.37 501.997 468.397 502.223C469.436 502.429 470.309 502.866 471.016 503.532C471.735 504.18 472.224 505.032 472.484 506.088C472.735 507.114 472.694 508.088 472.36 509.01C472.038 509.913 471.466 510.704 470.644 511.383C469.834 512.043 468.815 512.524 467.588 512.825L460.199 514.638L459.558 512.027ZM463.357 512.603L466.97 511.716L475.923 518.194L472.24 519.097L463.357 512.603Z" fill="#C2FF4E"/>
<path d="M478.014 507.074L490.425 503.427L491.211 506.098L478.799 509.745L478.014 507.074ZM488.574 495.766L489.359 498.437L476.488 502.22L477.638 500.006L482.436 516.331L479.397 517.224L474.321 499.955L488.574 495.766Z" fill="#C2FF4E"/>
<path d="M509.069 497.034L509.909 499.537L497.986 503.538L497.146 501.035L509.069 497.034ZM499.546 501.622L500.898 509.649L498.899 508.446L512.142 504.003L513.012 506.597L498.131 511.59L496.633 502.599L492.405 494.525L507.172 489.57L508.043 492.164L494.914 496.569L495.782 494.404L499.546 501.622Z" fill="#C2FF4E"/>
<path d="M532.051 493.123C532.337 494.575 532.229 495.975 531.728 497.322C531.237 498.648 530.413 499.819 529.255 500.835C528.097 501.85 526.655 502.627 524.929 503.166C523.005 503.767 521.201 503.92 519.516 503.625C517.831 503.33 516.377 502.644 515.152 501.568C513.923 500.477 513.032 499.046 512.479 497.274C511.925 495.503 511.846 493.826 512.24 492.245C512.63 490.648 513.433 489.249 514.651 488.047C515.868 486.846 517.438 485.944 519.363 485.343C521.089 484.804 522.716 484.623 524.246 484.799C525.776 484.975 527.121 485.468 528.279 486.28C529.453 487.087 530.338 488.176 530.935 489.549L527.888 490.5C527.434 489.637 526.821 488.965 526.051 488.484C525.296 487.999 524.421 487.72 523.426 487.645C522.425 487.555 521.345 487.691 520.184 488.054C518.84 488.474 517.751 489.091 516.915 489.905C516.095 490.714 515.563 491.668 515.32 492.766C515.076 493.865 515.152 495.048 515.548 496.316C515.944 497.583 516.555 498.599 517.38 499.364C518.206 500.129 519.186 500.61 520.321 500.809C521.471 501.003 522.718 500.89 524.062 500.47C525.223 500.108 526.191 499.613 526.967 498.985C527.743 498.357 528.304 497.629 528.648 496.8C529.004 495.952 529.122 495.043 529.004 494.074L532.051 493.123Z" fill="#C2FF4E"/>
<path d="M538.278 481.528L541.323 480.652L545.891 496.545L542.846 497.42L538.278 481.528ZM530.723 482.176L548.069 477.19L548.838 479.866L531.492 484.851L530.723 482.176Z" fill="#C2FF4E"/>
<path d="M579.197 469.245L583.53 486.716L580.595 487.444L576.493 470.905L577.46 470.714L573.42 489.223L570.136 490.038L557.922 475.585L558.865 475.301L562.961 491.817L560.026 492.545L555.693 475.074L560.399 473.907L572.229 488.109L570.691 488.49L574.492 470.412L579.197 469.245Z" fill="#C2FF4E"/>
<path d="M588.538 481.404L587.997 478.844L600.302 476.244L600.843 478.804L588.538 481.404ZM593.842 466.105L606.017 481.929L602.706 482.629L591.554 467.815L592.751 467.562L588.546 485.621L585.236 486.321L589.967 466.923L593.842 466.105Z" fill="#C2FF4E"/>
<path d="M611.502 464.132L614.619 463.568L617.561 479.84L614.443 480.404L611.502 464.132ZM603.92 464.014L621.68 460.804L622.175 463.543L604.415 466.754L603.92 464.014Z" fill="#C2FF4E"/>
<path d="M643.315 468.553C643.374 470.032 643.051 471.398 642.348 472.652C641.659 473.887 640.664 474.917 639.363 475.741C638.062 476.566 636.518 477.111 634.729 477.378C632.735 477.675 630.929 477.547 629.31 476.996C627.691 476.444 626.36 475.543 625.316 474.291C624.27 473.023 623.61 471.471 623.337 469.636C623.063 467.8 623.243 466.131 623.877 464.629C624.508 463.112 625.518 461.853 626.906 460.854C628.294 459.855 629.985 459.206 631.979 458.909C633.767 458.643 635.403 458.715 636.888 459.125C638.372 459.534 639.624 460.229 640.644 461.21C641.679 462.188 642.386 463.401 642.763 464.849L639.606 465.32C639.291 464.396 638.789 463.638 638.103 463.044C637.431 462.449 636.61 462.037 635.638 461.81C634.663 461.567 633.575 461.535 632.372 461.714C630.979 461.922 629.808 462.363 628.857 463.038C627.922 463.712 627.249 464.572 626.839 465.62C626.429 466.668 626.322 467.848 626.517 469.162C626.713 470.475 627.16 471.574 627.857 472.456C628.555 473.339 629.449 473.966 630.54 474.338C631.646 474.707 632.896 474.788 634.288 474.58C635.491 474.401 636.524 474.061 637.388 473.56C638.252 473.06 638.918 472.427 639.386 471.661C639.868 470.878 640.125 469.998 640.158 469.023L643.315 468.553Z" fill="#C2FF4E"/>
<path d="M645.725 457.288L648.873 456.938L650.867 474.827L647.718 475.178L645.725 457.288ZM660.275 455.667L663.423 455.316L665.417 473.205L662.268 473.556L660.275 455.667ZM648.253 464.589L662.612 462.989L662.92 465.756L648.561 467.356L648.253 464.589Z" fill="#C2FF4E"/>
<path d="M687.878 472.576C687.408 470.534 685.807 468.025 682.914 466.09C681.493 465.133 680.067 464.537 678.685 464.323L678.631 463.316C681.304 462.523 683.866 460.559 685.434 457.998C686.23 456.706 686.715 455.454 686.887 454.171L687.893 454.117C688.431 456.515 690.445 459.098 693.082 460.759C694.376 461.578 695.702 462.108 697.036 462.324L697.09 463.331C694.46 464.026 691.496 466.565 690.093 469.068C689.392 470.331 688.997 471.482 688.885 472.522L687.878 472.576Z" fill="#C2FF4E"/>
<path d="M722.754 452.731C724.098 452.736 725.257 452.98 726.231 453.463C727.222 453.947 727.979 454.622 728.504 455.488C729.045 456.338 729.313 457.323 729.309 458.443C729.305 459.563 729.03 460.554 728.483 461.416C727.951 462.262 727.189 462.923 726.195 463.399C725.218 463.876 724.057 464.112 722.713 464.107L714.625 464.077L714.635 461.341L722.603 461.37C723.691 461.374 724.54 461.113 725.15 460.588C725.775 460.062 726.09 459.343 726.093 458.431C726.097 457.519 725.787 456.798 725.165 456.268C724.559 455.737 723.712 455.47 722.624 455.466L714.968 455.439L716.39 453.86L716.329 470.708L713.161 470.696L713.226 452.696L722.754 452.731Z" fill="#C2FF4E"/>
<path d="M743.622 460.952L743.528 463.59L730.96 463.143L731.054 460.505L743.622 460.952ZM733.094 461.898L731.537 469.888L730.089 468.06L744.048 468.556L743.951 471.29L728.265 470.732L730.023 461.789L728.904 452.744L744.47 453.297L744.373 456.031L730.534 455.539L732.108 453.818L733.094 461.898Z" fill="#C2FF4E"/>
<path d="M752.02 461.839L759.321 462.371C760.374 462.447 761.221 462.269 761.863 461.834C762.52 461.401 762.879 460.769 762.939 459.939C763.001 459.094 762.737 458.417 762.149 457.908C761.577 457.386 760.765 457.086 759.712 457.009L751.956 456.444L753.498 454.775L752.259 471.77L749.099 471.54L750.408 453.588L760.198 454.301C761.459 454.393 762.543 454.705 763.451 455.236C764.375 455.753 765.072 456.437 765.539 457.289C766.023 458.127 766.226 459.088 766.147 460.173C766.07 461.226 765.731 462.14 765.129 462.914C764.544 463.674 763.756 464.25 762.765 464.643C761.791 465.021 760.673 465.164 759.413 465.073L751.825 464.519L752.02 461.839ZM755.457 463.557L759.167 463.827L765.687 472.749L761.905 472.473L755.457 463.557Z" fill="#C2FF4E"/>
<path d="M771.537 463.159L784.398 464.55L784.099 467.318L771.238 465.927L771.537 463.159ZM785.626 456.765L785.327 459.533L771.989 458.091L773.9 456.487L772.071 473.404L768.921 473.064L770.857 455.168L785.626 456.765Z" fill="#C2FF4E"/>
<path d="M801.485 466.71L801.116 469.324L788.664 467.567L789.033 464.953L801.485 466.71ZM790.916 466.552L788.533 474.335L787.284 472.365L801.115 474.317L800.732 477.026L785.19 474.833L787.874 466.122L787.706 457.009L803.129 459.186L802.747 461.895L789.035 459.96L790.78 458.413L790.916 466.552Z" fill="#C2FF4E"/>
<path d="M825.234 474.059C824.817 475.48 824.075 476.672 823.008 477.634C821.96 478.584 820.687 479.242 819.191 479.607C817.695 479.973 816.057 479.996 814.278 479.676C812.294 479.32 810.623 478.622 809.265 477.582C807.907 476.542 806.934 475.262 806.345 473.742C805.759 472.206 805.63 470.525 805.958 468.698C806.286 466.872 806.99 465.348 808.071 464.128C809.154 462.892 810.513 462.022 812.148 461.519C813.782 461.016 815.592 460.942 817.576 461.298C819.355 461.617 820.883 462.209 822.159 463.071C823.434 463.934 824.398 464.993 825.051 466.248C825.719 467.506 826.001 468.881 825.896 470.374L822.754 469.81C822.75 468.834 822.518 467.956 822.057 467.174C821.611 466.395 820.964 465.742 820.116 465.216C819.27 464.674 818.249 464.296 817.052 464.081C815.666 463.833 814.415 463.876 813.298 464.212C812.197 464.551 811.284 465.151 810.561 466.013C809.837 466.875 809.358 467.959 809.124 469.266C808.889 470.574 808.961 471.757 809.34 472.816C809.719 473.876 810.365 474.756 811.28 475.457C812.21 476.16 813.369 476.636 814.754 476.885C815.951 477.1 817.039 477.108 818.017 476.909C818.996 476.711 819.829 476.324 820.518 475.749C821.225 475.16 821.75 474.409 822.092 473.496L825.234 474.059Z" fill="#C2FF4E"/>
<path d="M835.987 466.749L839.084 467.416L835.603 483.581L832.506 482.914L835.987 466.749ZM829.022 463.752L846.665 467.551L846.079 470.272L828.435 466.473L829.022 463.752Z" fill="#C2FF4E"/>
<path d="M877.941 475.621L873.304 493.014L870.382 492.235L874.772 475.77L875.71 476.07L863.24 490.331L859.97 489.459L856.247 470.906L857.21 471.113L852.827 487.555L849.905 486.776L854.542 469.384L859.226 470.632L862.734 488.78L861.204 488.372L873.256 474.373L877.941 475.621Z" fill="#C2FF4E"/>
<path d="M878.383 490.261L879.152 487.76L891.173 491.456L890.404 493.957L878.383 490.261ZM890.443 479.456L893.412 499.2L890.177 498.206L887.613 479.841L888.783 480.201L876.344 493.953L873.11 492.958L886.658 478.292L890.443 479.456Z" fill="#C2FF4E"/>
<path d="M907.492 486.505L910.491 487.526L905.161 503.18L902.162 502.158L907.492 486.505ZM900.921 482.721L918.006 488.539L917.108 491.174L900.024 485.356L900.921 482.721Z" fill="#C2FF4E"/>
<path d="M931.862 505.26C931.2 506.585 930.259 507.627 929.039 508.386C927.84 509.135 926.472 509.558 924.934 509.653C923.397 509.749 921.781 509.482 920.086 508.854C918.196 508.153 916.674 507.171 915.522 505.907C914.369 504.643 913.637 503.212 913.326 501.612C913.021 499.997 913.191 498.319 913.836 496.579C914.481 494.839 915.444 493.463 916.723 492.453C918.007 491.428 919.498 490.812 921.196 490.605C922.894 490.399 924.688 490.646 926.578 491.347C928.273 491.975 929.673 492.827 930.776 493.902C931.879 494.976 932.641 496.189 933.062 497.539C933.497 498.896 933.531 500.299 933.164 501.75L930.171 500.64C930.34 499.679 930.266 498.772 929.951 497.922C929.65 497.076 929.128 496.32 928.386 495.652C927.649 494.969 926.711 494.417 925.571 493.994C924.251 493.504 923.011 493.326 921.853 493.46C920.709 493.599 919.705 494.028 918.841 494.749C917.976 495.469 917.313 496.452 916.851 497.697C916.39 498.942 916.252 500.12 916.437 501.229C916.623 502.339 917.104 503.32 917.881 504.171C918.672 505.027 919.728 505.701 921.048 506.19C922.188 506.613 923.257 506.813 924.255 506.791C925.253 506.768 926.142 506.535 926.921 506.09C927.721 505.636 928.371 504.989 928.869 504.15L931.862 505.26Z" fill="#C2FF4E"/>
<path d="M939.98 496.741L942.916 497.933L936.146 514.611L933.21 513.42L939.98 496.741ZM953.545 502.248L956.481 503.439L949.711 520.118L946.775 518.926L953.545 502.248ZM938.725 504.365L952.112 509.799L951.065 512.379L937.678 506.944L938.725 504.365Z" fill="#C2FF4E"/>
<path d="M971.042 530.57C971.57 528.542 971.312 525.576 969.644 522.522C968.826 521.016 967.838 519.828 966.712 518.998L967.13 518.081C969.867 518.615 973.047 518.06 975.623 516.516C976.926 515.739 977.936 514.853 978.681 513.795L979.599 514.213C978.965 516.588 979.555 519.81 981.124 522.503C981.892 523.828 982.823 524.911 983.904 525.721L983.487 526.638C980.834 526.036 977.031 526.915 974.629 528.485C973.422 529.28 972.54 530.118 971.959 530.987L971.042 530.57Z" fill="#C2FF4E"/>
<path d="M1010.22 528.229C1011.42 528.829 1012.35 529.562 1013.01 530.428C1013.69 531.3 1014.07 532.241 1014.15 533.25C1014.26 534.251 1014.06 535.253 1013.56 536.255C1013.06 537.257 1012.38 538.023 1011.51 538.553C1010.65 539.076 1009.68 539.331 1008.58 539.317C1007.49 539.311 1006.34 539.008 1005.14 538.407L997.904 534.795L999.126 532.347L1006.25 535.906C1007.23 536.392 1008.1 536.534 1008.88 536.333C1009.68 536.14 1010.28 535.635 1010.69 534.819C1011.09 534.003 1011.14 533.219 1010.81 532.468C1010.51 531.724 1009.87 531.109 1008.89 530.623L1002.04 527.204L1004.02 526.419L996.491 541.493L993.657 540.078L1001.7 523.973L1010.22 528.229Z" fill="#C2FF4E"/>
<path d="M1026.32 545.165L1025.09 547.504L1013.95 541.674L1015.17 539.335L1026.32 545.165ZM1016.41 541.473L1011.56 548.007L1011.04 545.732L1023.42 552.207L1022.15 554.632L1008.24 547.356L1013.69 540.049L1016.59 531.406L1030.39 538.627L1029.12 541.051L1016.85 534.632L1019.01 533.759L1016.41 541.473Z" fill="#C2FF4E"/>
<path d="M1033.25 549.369L1039.66 552.893C1040.59 553.401 1041.43 553.591 1042.2 553.463C1042.97 553.343 1043.56 552.918 1043.96 552.189C1044.37 551.445 1044.41 550.72 1044.09 550.013C1043.79 549.3 1043.18 548.689 1042.25 548.181L1035.43 544.437L1037.53 543.562L1029.33 558.498L1026.55 556.973L1035.22 541.196L1043.82 545.921C1044.93 546.529 1045.78 547.264 1046.39 548.125C1047.01 548.98 1047.36 549.892 1047.43 550.862C1047.52 551.825 1047.31 552.783 1046.78 553.737C1046.27 554.662 1045.59 555.352 1044.72 555.805C1043.87 556.252 1042.91 556.448 1041.85 556.393C1040.8 556.331 1039.73 555.996 1038.62 555.387L1031.95 551.725L1033.25 549.369ZM1035.65 552.362L1038.92 554.153L1041.13 564.979L1037.81 563.154L1035.65 552.362Z" fill="#C2FF4E"/>
<path d="M1049.78 558.24L1061 564.668L1059.62 567.084L1048.4 560.656L1049.78 558.24ZM1065.25 558.027L1063.87 560.443L1052.22 553.777L1054.62 553.074L1046.16 567.841L1043.41 566.266L1052.36 550.646L1065.25 558.027Z" fill="#C2FF4E"/>
<path d="M1077.8 574.392L1076.45 576.66L1065.64 570.225L1066.99 567.957L1077.8 574.392ZM1068.11 570.159L1062.91 576.416L1062.52 574.116L1074.52 581.264L1073.12 583.615L1059.63 575.583L1065.47 568.587L1068.84 560.118L1082.22 568.089L1080.82 570.439L1068.93 563.353L1071.13 562.601L1068.11 570.159Z" fill="#C2FF4E"/>
<path d="M1094.65 588.507C1093.74 589.675 1092.61 590.51 1091.26 591.014C1089.94 591.512 1088.51 591.656 1086.99 591.446C1085.46 591.236 1083.93 590.656 1082.39 589.705C1080.68 588.645 1079.38 587.382 1078.5 585.915C1077.62 584.449 1077.18 582.901 1077.2 581.271C1077.21 579.628 1077.71 578.017 1078.69 576.438C1079.66 574.859 1080.88 573.701 1082.33 572.963C1083.79 572.212 1085.38 571.902 1087.08 572.035C1088.79 572.167 1090.5 572.764 1092.21 573.824C1093.75 574.775 1094.95 575.886 1095.82 577.157C1096.69 578.429 1097.2 579.768 1097.35 581.175C1097.51 582.59 1097.26 583.973 1096.62 585.322L1093.9 583.644C1094.26 582.735 1094.36 581.832 1094.22 580.935C1094.09 580.047 1093.73 579.203 1093.14 578.401C1092.55 577.587 1091.74 576.86 1090.7 576.22C1089.51 575.48 1088.33 575.06 1087.16 574.963C1086.01 574.873 1084.95 575.096 1083.96 575.632C1082.97 576.167 1082.12 577 1081.42 578.129C1080.73 579.259 1080.36 580.386 1080.32 581.511C1080.28 582.635 1080.56 583.691 1081.15 584.679C1081.76 585.675 1082.66 586.543 1083.86 587.284C1084.9 587.923 1085.9 588.331 1086.89 588.506C1087.87 588.681 1088.79 588.627 1089.64 588.345C1090.51 588.058 1091.28 587.552 1091.93 586.828L1094.65 588.507Z" fill="#C2FF4E"/>
<path d="M1108.47 585.981L1111.19 587.597L1102.76 601.82L1100.04 600.204L1108.47 585.981ZM1102.82 580.927L1118.34 590.133L1116.92 592.527L1101.4 583.322L1102.82 580.927Z" fill="#C2FF4E"/>
<path d="M1148.11 605.972L1139.85 621.962L1137.16 620.574L1144.99 605.436L1145.84 605.931L1130.6 617.18L1127.59 615.626L1127.94 596.707L1128.84 597.116L1121.02 612.232L1118.34 610.844L1126.6 594.853L1130.91 597.079L1130.43 615.557L1129.03 614.83L1143.81 603.746L1148.11 605.972Z" fill="#C2FF4E"/>
<path d="M1145.44 619.998L1146.52 617.618L1157.96 622.844L1156.88 625.224L1145.44 619.998ZM1158.8 610.851L1159.18 630.813L1156.1 629.407L1155.94 610.865L1157.05 611.374L1142.94 623.393L1139.86 621.987L1155.2 609.205L1158.8 610.851Z" fill="#C2FF4E"/>
<path d="M1173.34 618.777L1176.28 619.972L1170.04 635.287L1167.11 634.093L1173.34 618.777ZM1167 614.616L1183.72 621.421L1182.67 623.999L1165.95 617.195L1167 614.616Z" fill="#C2FF4E"/>
<path d="M1199.9 638.764C1199.26 640.098 1198.33 641.154 1197.12 641.932C1195.94 642.7 1194.57 643.144 1193.04 643.263C1191.5 643.382 1189.88 643.141 1188.18 642.538C1186.28 641.866 1184.74 640.908 1183.57 639.662C1182.4 638.416 1181.64 636.996 1181.31 635.401C1180.98 633.791 1181.12 632.111 1181.74 630.361C1182.36 628.611 1183.3 627.221 1184.56 626.191C1185.83 625.146 1187.31 624.507 1189.01 624.275C1190.7 624.042 1192.5 624.262 1194.4 624.933C1196.11 625.536 1197.52 626.366 1198.64 627.423C1199.76 628.481 1200.54 629.682 1200.98 631.025C1201.44 632.375 1201.49 633.777 1201.15 635.234L1198.14 634.17C1198.29 633.206 1198.2 632.301 1197.87 631.455C1197.56 630.615 1197.03 629.866 1196.27 629.21C1195.53 628.539 1194.58 628.001 1193.43 627.595C1192.11 627.126 1190.87 626.967 1189.71 627.119C1188.57 627.275 1187.57 627.72 1186.72 628.454C1185.86 629.188 1185.22 630.18 1184.77 631.433C1184.33 632.685 1184.21 633.864 1184.41 634.971C1184.62 636.078 1185.11 637.051 1185.9 637.89C1186.71 638.734 1187.77 639.391 1189.1 639.86C1190.25 640.265 1191.32 640.449 1192.32 640.411C1193.31 640.374 1194.2 640.126 1194.97 639.67C1195.76 639.203 1196.4 638.547 1196.89 637.7L1199.9 638.764Z" fill="#C2FF4E"/>
<path d="M1204.69 628.934L1207.73 629.832L1202.62 647.094L1199.59 646.195L1204.69 628.934ZM1218.73 633.085L1221.77 633.983L1216.66 651.245L1213.63 650.346L1218.73 633.085ZM1204.19 636.644L1218.04 640.741L1217.25 643.41L1203.4 639.314L1204.19 636.644Z" fill="#C2FF4E"/>
<path d="M1241.82 658.223C1241.87 656.128 1240.93 653.302 1238.61 650.714C1237.46 649.437 1236.23 648.508 1234.94 647.961L1235.14 646.972C1237.92 646.861 1240.89 645.587 1243.04 643.492C1244.13 642.435 1244.91 641.341 1245.39 640.14L1246.38 640.335C1246.31 642.792 1247.63 645.791 1249.77 648.05C1250.83 649.163 1251.98 650.002 1253.22 650.54L1253.03 651.529C1250.3 651.555 1246.81 653.287 1244.83 655.367C1243.84 656.42 1243.18 657.438 1242.81 658.418L1241.82 658.223Z" fill="#C2FF4E"/>
<path d="M1279.05 644.503C1280.39 644.63 1281.52 644.98 1282.44 645.551C1283.39 646.123 1284.08 646.864 1284.52 647.774C1284.98 648.67 1285.16 649.676 1285.05 650.791C1284.95 651.906 1284.58 652.867 1283.96 653.675C1283.35 654.469 1282.53 655.058 1281.5 655.441C1280.48 655.826 1279.3 655.955 1277.97 655.827L1269.91 655.057L1270.18 652.333L1278.11 653.092C1279.19 653.195 1280.06 653.013 1280.71 652.546C1281.39 652.079 1281.77 651.392 1281.85 650.485C1281.94 649.577 1281.7 648.83 1281.13 648.245C1280.57 647.662 1279.75 647.318 1278.67 647.215L1271.05 646.486L1272.61 645.044L1271 661.815L1267.85 661.514L1269.56 643.596L1279.05 644.503Z" fill="#C2FF4E"/>
<path d="M1301.84 653.319L1301.77 655.958L1289.2 655.614L1289.27 652.975L1301.84 653.319ZM1291.32 654.351L1289.83 662.353L1288.37 660.537L1302.33 660.919L1302.25 663.654L1286.56 663.224L1288.25 654.267L1287.06 645.231L1302.63 645.657L1302.55 648.392L1288.71 648.013L1290.27 646.279L1291.32 654.351Z" fill="#C2FF4E"/>
<path d="M1307.72 653.697L1315.03 653.327C1316.08 653.273 1316.9 652.991 1317.48 652.481C1318.08 651.97 1318.36 651.299 1318.32 650.469C1318.28 649.622 1317.93 648.982 1317.28 648.55C1316.65 648.102 1315.81 647.904 1314.75 647.957L1306.99 648.351L1308.31 646.505L1309.17 663.524L1306.01 663.684L1305.1 645.707L1314.9 645.21C1316.17 645.147 1317.28 645.322 1318.25 645.738C1319.23 646.137 1320 646.731 1320.57 647.519C1321.16 648.29 1321.47 649.219 1321.53 650.306C1321.58 651.361 1321.36 652.309 1320.86 653.152C1320.37 653.977 1319.66 654.646 1318.72 655.158C1317.8 655.653 1316.71 655.933 1315.45 655.997L1307.85 656.381L1307.72 653.697ZM1311.34 654.979L1315.05 654.791L1322.62 662.843L1318.83 663.035L1311.34 654.979Z" fill="#C2FF4E"/>
<path d="M1327.02 652.202L1339.82 650.386L1340.21 653.142L1327.41 654.959L1327.02 652.202ZM1339.1 642.538L1339.49 645.294L1326.21 647.178L1327.66 645.153L1330.05 662.001L1326.92 662.446L1324.39 644.624L1339.1 642.538Z" fill="#C2FF4E"/>
<path d="M1358.26 645.866L1358.9 648.425L1346.71 651.501L1346.06 648.941L1358.26 645.866ZM1348.41 649.711L1349.14 657.817L1347.24 656.465L1360.79 653.049L1361.46 655.702L1346.24 659.541L1345.43 650.462L1341.83 642.087L1356.94 638.278L1357.61 640.931L1344.18 644.318L1345.21 642.226L1348.41 649.711Z" fill="#C2FF4E"/>
<path d="M1381.43 640.403C1381.84 641.826 1381.85 643.23 1381.47 644.614C1381.09 645.978 1380.37 647.216 1379.31 648.327C1378.24 649.439 1376.87 650.337 1375.2 651.023C1373.33 651.788 1371.55 652.095 1369.84 651.946C1368.14 651.797 1366.63 651.24 1365.32 650.273C1364 649.292 1362.99 647.943 1362.29 646.226C1361.58 644.508 1361.36 642.845 1361.62 641.235C1361.87 639.611 1362.55 638.148 1363.66 636.846C1364.76 635.544 1366.25 634.511 1368.12 633.746C1369.79 633.06 1371.4 632.739 1372.94 632.783C1374.47 632.826 1375.86 633.202 1377.08 633.911C1378.32 634.613 1379.3 635.623 1380.01 636.939L1377.05 638.149C1376.53 637.328 1375.86 636.711 1375.05 636.299C1374.26 635.881 1373.36 635.677 1372.36 635.689C1371.36 635.685 1370.29 635.914 1369.17 636.375C1367.87 636.909 1366.83 637.618 1366.07 638.501C1365.32 639.378 1364.88 640.374 1364.73 641.489C1364.58 642.605 1364.76 643.777 1365.26 645.006C1365.77 646.235 1366.46 647.194 1367.35 647.885C1368.24 648.576 1369.26 648.971 1370.4 649.071C1371.57 649.166 1372.8 648.946 1374.1 648.412C1375.23 647.951 1376.15 647.374 1376.87 646.681C1377.59 645.989 1378.08 645.215 1378.36 644.36C1378.64 643.484 1378.68 642.569 1378.47 641.614L1381.43 640.403Z" fill="#C2FF4E"/>
<path d="M1384.18 627.69L1386.86 626L1395.68 639.987L1393 641.677L1384.18 627.69ZM1377.1 630.421L1392.37 620.793L1393.85 623.148L1378.59 632.776L1377.1 630.421Z" fill="#C2FF4E"/>
<path d="M1411.22 599.281L1425.4 610.371L1423.53 612.752L1410.11 602.254L1410.76 601.509L1418.98 618.575L1416.9 621.24L1398.37 617.384L1398.94 616.58L1412.34 627.063L1410.48 629.445L1396.3 618.355L1399.29 614.537L1417.36 618.432L1416.38 619.679L1408.23 603.1L1411.22 599.281Z" fill="#C2FF4E"/>
<path d="M1425.2 600.24L1422.7 599.479L1426.36 587.447L1428.86 588.208L1425.2 600.24ZM1414.36 588.213L1434.1 585.185L1433.11 588.422L1414.76 591.042L1415.11 589.871L1428.9 602.268L1427.92 605.505L1413.21 592.002L1414.36 588.213Z" fill="#C2FF4E"/>
<path d="M1417.99 573.528L1418.01 570.36L1434.55 570.501L1434.52 573.669L1417.99 573.528ZM1416.46 580.955L1416.61 562.908L1419.4 562.931L1419.24 580.979L1416.46 580.955Z" fill="#C2FF4E"/>
<path d="M1422.79 542.553C1424.26 542.375 1425.65 542.587 1426.96 543.186C1428.24 543.774 1429.35 544.684 1430.28 545.914C1431.2 547.144 1431.87 548.64 1432.28 550.401C1432.74 552.364 1432.75 554.175 1432.34 555.833C1431.92 557.491 1431.12 558.891 1429.96 560.032C1428.78 561.177 1427.29 561.959 1425.48 562.379C1423.67 562.799 1421.99 562.754 1420.45 562.243C1418.88 561.736 1417.55 560.831 1416.44 559.528C1415.33 558.225 1414.55 556.592 1414.09 554.628C1413.68 552.867 1413.62 551.23 1413.91 549.717C1414.2 548.205 1414.79 546.901 1415.69 545.805C1416.58 544.695 1417.73 543.893 1419.15 543.4L1419.87 546.509C1418.97 546.898 1418.26 547.459 1417.72 548.191C1417.18 548.908 1416.84 549.76 1416.69 550.747C1416.53 551.738 1416.58 552.826 1416.86 554.01C1417.18 555.382 1417.71 556.514 1418.46 557.407C1419.21 558.285 1420.12 558.887 1421.19 559.211C1422.27 559.536 1423.46 559.547 1424.75 559.247C1426.04 558.946 1427.1 558.413 1427.93 557.646C1428.75 556.88 1429.3 555.938 1429.59 554.821C1429.87 553.689 1429.85 552.437 1429.53 551.065C1429.25 549.881 1428.83 548.878 1428.26 548.058C1427.69 547.237 1427.01 546.624 1426.21 546.219C1425.39 545.802 1424.49 545.616 1423.52 545.662L1422.79 542.553Z" fill="#C2FF4E"/>
<path d="M1411.46 543.612L1410.14 540.732L1426.51 533.239L1427.83 536.119L1411.46 543.612ZM1405.37 530.301L1404.05 527.42L1420.42 519.928L1421.74 522.808L1405.37 530.301ZM1417.61 538.926L1411.59 525.789L1414.12 524.63L1420.14 537.767L1417.61 538.926Z" fill="#C2FF4E"/>
<path d="M1407.13 497.59C1405.68 499.103 1404.45 501.818 1404.42 505.298C1404.4 507.012 1404.69 508.531 1405.26 509.804L1404.45 510.401C1402.32 508.6 1399.27 507.535 1396.27 507.627C1394.76 507.67 1393.44 507.951 1392.28 508.511L1391.68 507.699C1393.39 505.934 1394.45 502.834 1394.39 499.718C1394.37 498.186 1394.08 496.787 1393.53 495.553L1394.34 494.955C1396.37 496.774 1400.11 497.861 1402.98 497.662C1404.42 497.555 1405.6 497.254 1406.53 496.778L1407.13 497.59Z" fill="#C2FF4E"/>
<path d="M1370.16 483.524C1369.23 482.552 1368.61 481.547 1368.28 480.51C1367.94 479.461 1367.9 478.447 1368.16 477.468C1368.4 476.489 1368.93 475.613 1369.74 474.84C1370.55 474.067 1371.45 473.579 1372.45 473.376C1373.43 473.172 1374.44 473.264 1375.47 473.65C1376.49 474.025 1377.46 474.698 1378.39 475.671L1383.97 481.522L1382 483.411L1376.49 477.646C1375.74 476.859 1374.97 476.428 1374.17 476.353C1373.35 476.266 1372.62 476.537 1371.96 477.167C1371.3 477.796 1370.99 478.519 1371.04 479.335C1371.08 480.139 1371.47 480.935 1372.22 481.722L1377.51 487.261L1375.39 487.33L1387.57 475.698L1389.76 477.99L1376.74 490.417L1370.16 483.524Z" fill="#C2FF4E"/>
<path d="M1359.07 462.284L1360.87 460.351L1370.08 468.912L1368.28 470.846L1359.07 462.284ZM1367.65 468.457L1374.06 463.434L1373.96 465.764L1363.73 456.255L1365.59 454.251L1377.09 464.936L1369.9 470.549L1364.83 478.121L1353.42 467.518L1355.29 465.514L1365.43 474.941L1363.11 475.213L1367.65 468.457Z" fill="#C2FF4E"/>
<path d="M1352.87 456.331L1347.57 451.277C1346.81 450.548 1346.04 450.148 1345.27 450.075C1344.49 449.992 1343.81 450.251 1343.23 450.853C1342.65 451.466 1342.42 452.156 1342.55 452.923C1342.66 453.69 1343.1 454.438 1343.86 455.167L1349.49 460.535L1347.24 460.842L1359 448.515L1361.29 450.702L1348.86 463.724L1341.76 456.947C1340.85 456.075 1340.21 455.145 1339.85 454.157C1339.46 453.17 1339.36 452.199 1339.54 451.245C1339.7 450.29 1340.16 449.42 1340.91 448.632C1341.64 447.868 1342.48 447.379 1343.44 447.164C1344.37 446.95 1345.34 447.007 1346.36 447.334C1347.35 447.661 1348.3 448.261 1349.22 449.134L1354.72 454.386L1352.87 456.331ZM1351.31 452.82L1348.62 450.251L1349.26 439.22L1352 441.838L1351.31 452.82Z" fill="#C2FF4E"/>
<path d="M1339.27 443.278L1330.52 433.751L1332.57 431.868L1341.32 441.395L1339.27 443.278ZM1324.47 438.793L1326.52 436.91L1335.59 446.791L1333.1 446.736L1345.63 435.225L1347.77 437.559L1334.51 449.734L1324.47 438.793Z" fill="#C2FF4E"/>
<path d="M1319.02 419.636L1321.09 417.997L1328.89 427.859L1326.82 429.497L1319.02 419.636ZM1326.56 427.041L1333.66 423.048L1333.2 425.336L1324.53 414.383L1326.68 412.685L1336.42 424.993L1328.47 429.449L1322.31 436.164L1312.64 423.95L1314.78 422.252L1323.38 433.111L1321.05 433.027L1326.56 427.041Z" fill="#C2FF4E"/>
<path d="M1308.45 398.243C1309.77 397.567 1311.15 397.284 1312.58 397.393C1313.99 397.499 1315.34 397.967 1316.64 398.8C1317.93 399.632 1319.08 400.803 1320.07 402.313C1321.18 403.996 1321.83 405.688 1322.01 407.389C1322.19 409.089 1321.94 410.677 1321.24 412.151C1320.53 413.634 1319.4 414.886 1317.85 415.907C1316.3 416.928 1314.71 417.467 1313.08 417.525C1311.44 417.592 1309.87 417.206 1308.38 416.368C1306.89 415.531 1305.59 414.27 1304.48 412.587C1303.49 411.077 1302.86 409.562 1302.61 408.043C1302.36 406.524 1302.46 405.096 1302.92 403.758C1303.37 402.407 1304.17 401.255 1305.33 400.303L1307.08 402.969C1306.38 403.644 1305.9 404.418 1305.65 405.291C1305.4 406.15 1305.37 407.069 1305.57 408.046C1305.76 409.032 1306.19 410.033 1306.86 411.048C1307.64 412.224 1308.53 413.101 1309.54 413.679C1310.55 414.243 1311.61 414.491 1312.73 414.421C1313.86 414.352 1314.97 413.952 1316.08 413.221C1317.19 412.491 1318 411.623 1318.51 410.618C1319.01 409.614 1319.2 408.539 1319.08 407.393C1318.95 406.234 1318.5 405.067 1317.72 403.891C1317.05 402.876 1316.31 402.082 1315.49 401.509C1314.67 400.937 1313.82 400.6 1312.93 400.497C1312.01 400.39 1311.11 400.527 1310.21 400.909L1308.45 398.243Z" fill="#C2FF4E"/>
<path d="M1295.94 394.86L1294.44 392.073L1308.98 384.21L1310.49 386.997L1295.94 394.86ZM1298.19 402.101L1289.61 386.224L1292.06 384.9L1300.64 400.777L1298.19 402.101Z" fill="#C2FF4E"/>
<path d="M1277.18 356.208L1293.95 349.651L1295.05 352.468L1279.18 358.675L1278.87 357.741L1297.74 359.352L1298.97 362.503L1286.22 376.485L1285.82 375.586L1301.67 369.387L1302.77 372.204L1286 378.76L1284.24 374.246L1296.79 360.677L1297.37 362.152L1278.95 360.723L1277.18 356.208Z" fill="#C2FF4E"/>
<path d="M1288.73 345.992L1286.21 346.681L1282.9 334.548L1285.43 333.859L1288.73 345.992ZM1273.15 341.585L1288.25 328.513L1289.14 331.778L1274.99 343.77L1274.67 342.589L1292.94 345.74L1293.84 349.004L1274.2 345.405L1273.15 341.585Z" fill="#C2FF4E"/>
<path d="M1270.55 323.392L1269.98 320.276L1286.24 317.292L1286.81 320.408L1270.55 323.392ZM1270.45 330.974L1267.2 313.222L1269.93 312.72L1273.19 330.472L1270.45 330.974Z" fill="#C2FF4E"/>
<path d="M1275.78 290.761C1277.26 290.772 1278.61 291.159 1279.83 291.92C1281.03 292.667 1282.01 293.709 1282.78 295.047C1283.54 296.385 1284.01 297.954 1284.19 299.753C1284.4 301.758 1284.18 303.557 1283.56 305.148C1282.93 306.739 1281.97 308.027 1280.67 309.01C1279.35 309.996 1277.77 310.582 1275.92 310.769C1274.08 310.955 1272.42 310.697 1270.95 309.993C1269.46 309.291 1268.25 308.224 1267.32 306.79C1266.39 305.357 1265.82 303.637 1265.62 301.632C1265.43 299.833 1265.58 298.202 1266.06 296.738C1266.54 295.274 1267.29 294.056 1268.32 293.084C1269.35 292.096 1270.59 291.447 1272.06 291.138L1272.38 294.314C1271.44 294.586 1270.66 295.051 1270.04 295.709C1269.41 296.351 1268.96 297.153 1268.69 298.113C1268.4 299.075 1268.31 300.161 1268.44 301.371C1268.58 302.771 1268.96 303.963 1269.59 304.944C1270.22 305.91 1271.05 306.622 1272.08 307.081C1273.11 307.54 1274.28 307.703 1275.6 307.569C1276.92 307.435 1278.04 307.041 1278.95 306.385C1279.87 305.73 1280.54 304.866 1280.96 303.794C1281.38 302.707 1281.52 301.462 1281.38 300.061C1281.26 298.852 1280.97 297.804 1280.51 296.917C1280.05 296.031 1279.45 295.336 1278.7 294.832C1277.94 294.314 1277.08 294.016 1276.1 293.937L1275.78 290.761Z" fill="#C2FF4E"/>
<path d="M1264.82 288.6L1264.76 285.433L1282.76 285.076L1282.82 288.244L1264.82 288.6ZM1264.53 273.963L1264.47 270.795L1282.47 270.439L1282.53 273.606L1264.53 273.963ZM1272.33 286.747L1272.04 272.302L1274.82 272.247L1275.11 286.692L1272.33 286.747Z" fill="#C2FF4E"/>
<path d="M1284.86 247.747C1282.78 247.907 1280.05 249.114 1277.71 251.684C1276.55 252.946 1275.75 254.267 1275.33 255.601L1274.32 255.504C1273.94 252.742 1272.38 249.914 1270.09 247.98C1268.93 247 1267.76 246.332 1266.52 245.971L1266.62 244.968C1269.07 244.795 1271.92 243.191 1273.96 240.832C1274.96 239.676 1275.69 238.444 1276.1 237.157L1277.1 237.255C1277.4 239.959 1279.46 243.27 1281.73 245.032C1282.87 245.915 1283.95 246.477 1284.96 246.744L1284.86 247.747Z" fill="#C2FF4E"/>
<path d="M1271.32 210.501C1271.58 209.183 1272.04 208.093 1272.7 207.23C1273.37 206.351 1274.18 205.738 1275.13 205.389C1276.07 205.022 1277.08 204.948 1278.18 205.168C1279.28 205.388 1280.2 205.849 1280.94 206.552C1281.67 207.236 1282.17 208.111 1282.45 209.178C1282.73 210.229 1282.73 211.414 1282.47 212.732L1280.89 220.663L1278.2 220.126L1279.76 212.313C1279.98 211.246 1279.89 210.363 1279.49 209.663C1279.09 208.947 1278.45 208.5 1277.55 208.322C1276.66 208.143 1275.89 208.308 1275.25 208.816C1274.61 209.309 1274.19 210.088 1273.98 211.155L1272.47 218.663L1271.2 216.964L1287.72 220.267L1287.1 223.373L1269.45 219.844L1271.32 210.501Z" fill="#C2FF4E"/>
<path d="M1284.21 189.716L1286.77 190.374L1283.64 202.553L1281.08 201.895L1284.21 189.716ZM1282.88 200.202L1290.35 203.438L1288.25 204.459L1291.73 190.932L1294.38 191.614L1290.47 206.815L1282.11 203.177L1273.04 202.329L1276.92 187.244L1279.57 187.926L1276.12 201.337L1274.77 199.43L1282.88 200.202Z" fill="#C2FF4E"/>
<path d="M1286.57 183.22L1288.79 176.244C1289.11 175.237 1289.13 174.371 1288.86 173.647C1288.59 172.907 1288.06 172.411 1287.26 172.159C1286.46 171.903 1285.74 172.001 1285.11 172.456C1284.46 172.89 1283.98 173.61 1283.66 174.617L1281.31 182.028L1280.05 180.141L1296.29 185.297L1295.33 188.317L1278.17 182.87L1281.14 173.515C1281.53 172.31 1282.08 171.328 1282.81 170.568C1283.53 169.789 1284.35 169.271 1285.29 169.015C1286.22 168.738 1287.2 168.765 1288.24 169.094C1289.24 169.413 1290.05 169.956 1290.67 170.721C1291.27 171.467 1291.65 172.367 1291.8 173.422C1291.94 174.458 1291.82 175.578 1291.44 176.782L1289.14 184.034L1286.57 183.22ZM1289.04 180.278L1290.17 176.732L1300.36 172.464L1299.21 176.079L1289.04 180.278Z" fill="#C2FF4E"/>
<path d="M1292.51 164.48L1297.08 152.375L1299.68 153.357L1295.12 165.462L1292.51 164.48ZM1289.84 149.24L1292.45 150.222L1287.72 162.776L1286.64 160.524L1302.57 166.525L1301.45 169.489L1284.61 163.142L1289.84 149.24Z" fill="#C2FF4E"/>
<path d="M1303.65 136.519L1306.08 137.567L1301.08 149.11L1298.66 148.062L1303.65 136.519ZM1300.7 146.669L1307.58 151.028L1305.35 151.711L1310.89 138.89L1313.4 139.976L1307.17 154.383L1299.48 149.489L1290.65 147.238L1296.83 132.942L1299.34 134.028L1293.85 146.738L1292.82 144.645L1300.7 146.669Z" fill="#C2FF4E"/>
<path d="M1317.25 116.046C1318.49 116.849 1319.42 117.898 1320.04 119.194C1320.66 120.468 1320.93 121.874 1320.86 123.413C1320.78 124.951 1320.34 126.528 1319.53 128.145C1318.63 129.947 1317.49 131.352 1316.1 132.359C1314.72 133.367 1313.22 133.938 1311.59 134.072C1309.95 134.199 1308.31 133.847 1306.65 133.015C1304.99 132.184 1303.73 131.077 1302.86 129.695C1301.98 128.306 1301.53 126.756 1301.51 125.046C1301.49 123.336 1301.94 121.58 1302.84 119.778C1303.65 118.161 1304.65 116.864 1305.84 115.884C1307.03 114.905 1308.31 114.281 1309.7 114.01C1311.1 113.725 1312.5 113.845 1313.9 114.368L1312.47 117.222C1311.53 116.949 1310.62 116.923 1309.74 117.144C1308.87 117.351 1308.06 117.786 1307.32 118.451C1306.56 119.109 1305.9 119.981 1305.36 121.068C1304.73 122.327 1304.42 123.539 1304.42 124.706C1304.44 125.858 1304.75 126.903 1305.37 127.841C1306 128.779 1306.9 129.545 1308.09 130.14C1309.28 130.735 1310.43 131.001 1311.55 130.938C1312.68 130.875 1313.7 130.504 1314.64 129.825C1315.57 129.132 1316.36 128.156 1316.99 126.897C1317.53 125.81 1317.85 124.769 1317.94 123.775C1318.02 122.78 1317.89 121.871 1317.53 121.048C1317.17 120.203 1316.6 119.487 1315.82 118.9L1317.25 116.046Z" fill="#C2FF4E"/>
<path d="M1313 104.506L1314.57 101.753L1328.94 109.928L1327.38 112.682L1313 104.506ZM1308.05 110.25L1316.97 94.5618L1319.39 95.9382L1310.47 111.626L1308.05 110.25Z" fill="#C2FF4E"/>
<path d="M1334.78 67.663L1349.64 77.8305L1347.93 80.3259L1333.87 70.7006L1334.46 69.9158L1343.75 86.4256L1341.84 89.2181L1323.11 86.5453L1323.62 85.7062L1337.66 95.3178L1335.96 97.8132L1321.1 87.6457L1323.84 83.6452L1342.12 86.3857L1341.23 87.6928L1332.04 71.6635L1334.78 67.663Z" fill="#C2FF4E"/>
<path d="M1349.87 70.8535L1347.84 69.2058L1355.76 59.438L1357.79 61.0858L1349.87 70.8535ZM1344.36 55.629L1363.78 60.256L1361.65 62.8843L1343.66 58.398L1344.43 57.4473L1352.53 74.1247L1350.4 76.7531L1341.86 58.7047L1344.36 55.629Z" fill="#C2FF4E"/>
<path d="M1356.86 43.4752L1359.03 41.1689L1371.07 52.5054L1368.9 54.8118L1356.86 43.4752ZM1350.69 47.8879L1363.06 34.7488L1365.09 36.6574L1352.72 49.7965L1350.69 47.8879Z" fill="#C2FF4E"/>
<path d="M1387.07 27.9614C1387.92 29.1769 1388.38 30.502 1388.46 31.9367C1388.54 33.3488 1388.26 34.7523 1387.61 36.1472C1386.95 37.5422 1385.95 38.833 1384.58 40.0197C1383.06 41.343 1381.47 42.2077 1379.81 42.614C1378.15 43.0202 1376.54 42.9765 1374.99 42.483C1373.42 41.9773 1372.03 41.0244 1370.81 39.6242C1369.59 38.224 1368.85 36.7205 1368.57 35.1137C1368.29 33.4948 1368.46 31.8908 1369.1 30.3017C1369.73 28.7125 1370.8 27.2563 1372.33 25.933C1373.69 24.7463 1375.11 23.9262 1376.58 23.4728C1378.05 23.0194 1379.48 22.9316 1380.87 23.2094C1382.27 23.4768 1383.51 24.1192 1384.61 25.1368L1382.2 27.232C1381.44 26.6232 1380.61 26.2536 1379.71 26.1232C1378.83 25.9822 1377.91 26.0775 1376.97 26.4089C1376.02 26.7284 1375.08 27.2871 1374.17 28.0853C1373.1 29.0095 1372.35 30.0121 1371.92 31.093C1371.49 32.1635 1371.39 33.2507 1371.6 34.3546C1371.82 35.4585 1372.37 36.5114 1373.24 37.5133C1374.11 38.5152 1375.08 39.2005 1376.14 39.5692C1377.2 39.938 1378.3 39.9855 1379.41 39.7117C1380.55 39.4274 1381.64 38.8231 1382.7 37.8989C1383.62 37.1008 1384.31 36.2583 1384.77 35.3716C1385.23 34.4848 1385.45 33.5929 1385.43 32.6958C1385.42 31.7761 1385.16 30.8963 1384.66 30.0566L1387.07 27.9614Z" fill="#C2FF4E"/>
<path d="M1382.89 17.444L1385.57 15.7455L1395.22 30.94L1392.54 32.6385L1382.89 17.444ZM1395.25 9.59511L1397.92 7.89666L1407.57 23.0911L1404.9 24.7896L1395.25 9.59511ZM1388.37 22.8919L1400.57 15.1459L1402.06 17.496L1389.86 25.2419L1388.37 22.8919Z" fill="#C2FF4E"/>
</svg>
