<svg width="256" height="235" viewBox="0 0 256 235" fill="none" xmlns="http://www.w3.org/2000/svg">
<path fill-rule="evenodd" clip-rule="evenodd" d="M116.156 210.052L128 220.809L139.844 210.052L139.851 210.046C173.008 180.051 199.723 155.829 218.265 133.199C236.698 110.702 246 91.006 246 70.2312C246 36.3314 219.536 10 185.6 10C166.342 10 147.7 18.9951 135.581 33.082L128 41.8933L120.419 33.082C108.3 18.9951 89.6579 10 70.4 10C36.4643 10 10 36.3314 10 70.2312C10 91.006 19.3023 110.702 37.7352 133.199C56.2772 155.829 82.9916 180.051 116.149 210.046L116.156 210.052ZM120.957 19.4197C123.469 21.6458 125.825 24.0316 128 26.5602C130.175 24.0316 132.531 21.6458 135.043 19.4197C148.64 7.36914 166.801 0 185.6 0C225.024 0 256 30.774 256 70.2312C256 118.372 212.48 157.829 146.56 217.461L128 234.317L109.44 217.461C43.52 157.829 0 118.372 0 70.2312C0 30.774 30.976 0 70.4 0C89.1993 0 107.36 7.36914 120.957 19.4197Z" fill="#C2FF4E"/>
<path d="M212.321 155.07L120.349 227.368L109.44 217.461C46.7882 160.785 4.3704 122.334 0.318359 77.3309L10.4216 47.519C42.6493 42.4283 128.484 74.2451 128.484 166.957C132.703 164.068 138.154 159.345 144.623 153.74C164.083 136.879 192.758 112.032 224.848 105.108C215.403 94.1625 207.83 64.488 206.66 55.4732C207.115 55.3573 207.592 55.234 208.091 55.1053C217.626 52.6449 234.788 48.2166 243.036 55.4732C249.476 61.1392 247.003 92.3913 243.126 115.072C235.708 128.127 225.274 141.233 212.321 155.07Z" fill="#C2FF4E"/>
</svg>
