<svg width="54" height="55" viewBox="0 0 54 55" fill="none" xmlns="http://www.w3.org/2000/svg">
<path d="M28.5 8.01581C28.5 8.41363 28.6581 8.79516 28.9394 9.07647C29.2207 9.35777 29.6022 9.51581 30 9.51581C30.3978 9.51581 30.7794 9.35777 31.0607 9.07647C31.342 8.79516 31.5 8.41363 31.5 8.01581V2.52881C31.5 2.13098 31.342 1.74945 31.0607 1.46815C30.7794 1.18684 30.3978 1.02881 30 1.02881C29.6022 1.02881 29.2207 1.18684 28.9394 1.46815C28.6581 1.74945 28.5 2.13098 28.5 2.52881V8.01581ZM42 8.12081C42.2733 7.83791 42.4244 7.459 42.421 7.06571C42.4176 6.67241 42.2599 6.29619 41.9817 6.01808C41.7036 5.73997 41.3274 5.58222 40.9341 5.5788C40.5408 5.57538 40.1619 5.72657 39.879 5.99981L36 9.87881C35.8568 10.0172 35.7425 10.1827 35.6639 10.3657C35.5853 10.5487 35.5439 10.7455 35.5421 10.9447C35.5404 11.1439 35.5784 11.3414 35.6538 11.5257C35.7292 11.7101 35.8406 11.8776 35.9814 12.0184C36.1223 12.1592 36.2897 12.2706 36.4741 12.346C36.6584 12.4215 36.8559 12.4594 37.0551 12.4577C37.2543 12.456 37.4511 12.4146 37.6341 12.336C37.8171 12.2573 37.9826 12.1431 38.121 11.9998L42 8.12081ZM21.879 11.9998C22.0174 12.1431 22.1829 12.2573 22.3659 12.336C22.5489 12.4146 22.7457 12.456 22.9449 12.4577C23.1441 12.4594 23.3416 12.4215 23.5259 12.346C23.7103 12.2706 23.8778 12.1592 24.0186 12.0184C24.1595 11.8776 24.2708 11.7101 24.3463 11.5257C24.4217 11.3414 24.4596 11.1439 24.4579 10.9447C24.4562 10.7455 24.4148 10.5487 24.3362 10.3657C24.2576 10.1827 24.1433 10.0172 24 9.87881L20.121 5.99981C19.8381 5.72657 19.4592 5.57538 19.0659 5.5788C18.6726 5.58222 18.2964 5.73997 18.0183 6.01808C17.7402 6.29619 17.5824 6.67241 17.579 7.06571C17.5756 7.459 17.7268 7.83791 18 8.12081L21.879 11.9998ZM20.016 19.4998C20.4138 19.4998 20.7954 19.3418 21.0767 19.0605C21.358 18.7792 21.516 18.3976 21.516 17.9998C21.516 17.602 21.358 17.2205 21.0767 16.9391C20.7954 16.6578 20.4138 16.4998 20.016 16.4998H14.529C14.1312 16.4998 13.7497 16.6578 13.4684 16.9391C13.1871 17.2205 13.029 17.602 13.029 17.9998C13.029 18.3976 13.1871 18.7792 13.4684 19.0605C13.7497 19.3418 14.1312 19.4998 14.529 19.4998H20.016ZM45.471 19.4998C45.8688 19.4998 46.2504 19.3418 46.5317 19.0605C46.813 18.7792 46.971 18.3976 46.971 17.9998C46.971 17.602 46.813 17.2205 46.5317 16.9391C46.2504 16.6578 45.8688 16.4998 45.471 16.4998H39.984C39.5862 16.4998 39.2047 16.6578 38.9234 16.9391C38.6421 17.2205 38.484 17.602 38.484 17.9998C38.484 18.3976 38.6421 18.7792 38.9234 19.0605C39.2047 19.3418 39.5862 19.4998 39.984 19.4998H45.471ZM39.879 29.9998C40.0174 30.1431 40.1829 30.2573 40.3659 30.336C40.5489 30.4146 40.7457 30.456 40.9449 30.4577C41.1441 30.4594 41.3416 30.4215 41.5259 30.346C41.7103 30.2706 41.8778 30.1592 42.0186 30.0184C42.1595 29.8776 42.2708 29.7101 42.3462 29.5257C42.4217 29.3414 42.4596 29.1439 42.4579 28.9447C42.4562 28.7455 42.4148 28.5487 42.3362 28.3657C42.2576 28.1827 42.1433 28.0172 42 27.8788L38.121 23.9998C37.9826 23.8565 37.8171 23.7423 37.6341 23.6637C37.4511 23.585 37.2543 23.5437 37.0551 23.5419C36.8559 23.5402 36.6584 23.5782 36.4741 23.6536C36.2897 23.729 36.1223 23.8404 35.9814 23.9812C35.8406 24.1221 35.7292 24.2895 35.6538 24.4739C35.5784 24.6582 35.5404 24.8557 35.5421 25.0549C35.5439 25.2541 35.5853 25.4509 35.6639 25.6339C35.7425 25.8169 35.8568 25.9824 36 26.1208L39.879 29.9998ZM28.5 33.4708C28.5 33.8686 28.6581 34.2502 28.9394 34.5315C29.2207 34.8128 29.6022 34.9708 30 34.9708C30.3978 34.9708 30.7794 34.8128 31.0607 34.5315C31.342 34.2502 31.5 33.8686 31.5 33.4708V27.9838C31.5 27.586 31.342 27.2045 31.0607 26.9231C30.7794 26.6418 30.3978 26.4838 30 26.4838C29.6022 26.4838 29.2207 26.6418 28.9394 26.9231C28.6581 27.2045 28.5 27.586 28.5 27.9838V33.4708ZM34.062 18.1798C34.3423 17.8986 34.4997 17.5178 34.4997 17.1208C34.4997 16.7238 34.3423 16.343 34.062 16.0618L31.938 13.9378C31.6567 13.6566 31.2753 13.4986 30.8775 13.4986C30.4798 13.4986 30.0983 13.6566 29.817 13.9378L25.938 17.8198C25.6568 18.1011 25.4988 18.4826 25.4988 18.8803C25.4988 19.2781 25.6568 19.6595 25.938 19.9408L28.062 22.0648C28.3433 22.346 28.7248 22.504 29.1225 22.504C29.5203 22.504 29.9017 22.346 30.183 22.0648L34.062 18.1858V18.1798ZM25.062 27.1798C25.3423 26.8986 25.4997 26.5178 25.4997 26.1208C25.4997 25.7238 25.3423 25.343 25.062 25.0618L22.938 22.9378C22.6567 22.6566 22.2753 22.4986 21.8775 22.4986C21.4798 22.4986 21.0983 22.6566 20.817 22.9378L1.93802 41.8198C1.65681 42.1011 1.49884 42.4826 1.49884 42.8803C1.49884 43.2781 1.65681 43.6595 1.93802 43.9408L4.06202 46.0648C4.34331 46.346 4.72477 46.504 5.12252 46.504C5.52027 46.504 5.90173 46.346 6.18302 46.0648L25.062 27.1798Z" fill="white"/>
<rect x="30" y="31" width="24" height="24" rx="12" fill="#C2FF4E"/>
<path d="M50 48.2853L44.7166 43.001L49.9981 37.7176L47.2834 35L41.999 40.2834L36.7156 35L34 37.7176L39.2815 43.001L34 48.2844L36.7176 51L41.999 45.7166L47.2805 51L50 48.2853Z" fill="#101010"/>
</svg>
