<svg width="58" height="52" viewBox="0 0 58 52" fill="none" xmlns="http://www.w3.org/2000/svg">
<path fill-rule="evenodd" clip-rule="evenodd" d="M24 6C22.9391 6 21.9217 6.42143 21.1716 7.17157C20.4214 7.92172 20 8.93913 20 10C20 11.0609 20.4214 12.0783 21.1716 12.8284C21.9217 13.5786 22.9391 14 24 14C25.0609 14 26.0783 13.5786 26.8284 12.8284C27.5786 12.0783 28 11.0609 28 10C28 8.93913 27.5786 7.92172 26.8284 7.17157C26.0783 6.42143 25.0609 6 24 6ZM18 10C18 8.4087 18.6321 6.88258 19.7574 5.75736C20.8826 4.63214 22.4087 4 24 4C25.5913 4 27.1174 4.63214 28.2426 5.75736C29.3679 6.88258 30 8.4087 30 10C30 11.5913 29.3679 13.1174 28.2426 14.2426C27.1174 15.3679 25.5913 16 24 16C22.4087 16 20.8826 15.3679 19.7574 14.2426C18.6321 13.1174 18 11.5913 18 10ZM15.308 19.462C15.6116 18.733 16.1243 18.1102 16.7813 17.6721C17.4383 17.2339 18.2103 17.0001 19 17H29C29.7897 17.0001 30.5617 17.2339 31.2187 17.6721C31.8757 18.1102 32.3884 18.733 32.692 19.462L35.192 25.462C36.225 27.939 34.574 30.655 32 30.97V31.892C32 32.0616 32.0431 32.2284 32.1253 32.3768C32.2076 32.5251 32.3262 32.6501 32.47 32.74L38.018 36.207C38.7945 36.6923 39.3919 37.4172 39.72 38.272C40.0481 39.1269 40.089 40.0654 39.8366 40.9456C39.5841 41.8257 39.0521 42.5998 38.3208 43.1509C37.5895 43.7019 36.6987 44 35.783 44H12.213C11.2971 44.0001 10.4062 43.7017 9.67507 43.1501C8.94397 42.5984 8.41255 41.8236 8.16128 40.9428C7.91002 40.0621 7.9526 39.1235 8.28257 38.2691C8.61255 37.4147 9.21195 36.6912 9.98999 36.208L15.578 32.738C15.7225 32.6482 15.8417 32.523 15.9242 32.3742C16.0068 32.2255 16.0501 32.0581 16.05 31.888V30.975C13.447 30.69 11.769 27.955 12.808 25.461L15.308 19.462ZM18.05 31V31.888C18.0499 32.3982 17.9198 32.8999 17.6718 33.3457C17.4239 33.7916 17.0663 34.1668 16.633 34.436L11.046 37.906C10.6369 38.1596 10.3216 38.5396 10.1479 38.9885C9.97424 39.4375 9.95167 39.9308 10.0836 40.3937C10.2156 40.8566 10.4948 41.2638 10.8791 41.5537C11.2634 41.8436 11.7317 42.0003 12.213 42H30C30.2652 42 30.5196 41.8946 30.7071 41.7071C30.8946 41.5196 31 41.2652 31 41V40.87C30.9998 40.6165 30.9034 40.3726 30.7301 40.1875C30.5569 40.0024 30.3199 39.89 30.067 39.873L16.983 38.998C16.7183 38.9802 16.4715 38.858 16.2969 38.6583C16.1223 38.4586 16.0342 38.1977 16.052 37.933C16.0698 37.6683 16.192 37.4215 16.3917 37.2469C16.5914 37.0723 16.8523 36.9842 17.117 37.002L30.2 37.877C30.9594 37.9277 31.6712 38.2653 32.1911 38.8212C32.711 39.3771 33.0002 40.1099 33 40.871V41C33 41.35 32.94 41.687 32.83 42H35.783C36.2644 42 36.7327 41.8433 37.1172 41.5536C37.5016 41.2639 37.7813 40.8569 37.9141 40.3942C38.0468 39.9314 38.0253 39.4381 37.8528 38.9887C37.6803 38.5392 37.3662 38.1581 36.958 37.903L31.41 34.435C30.9785 34.1653 30.6227 33.7903 30.3761 33.3453C30.1294 32.9003 30 32.3998 30 31.891V31H27.243C26.7176 31 26.1973 30.8965 25.7119 30.6954C25.2265 30.4943 24.7855 30.1996 24.414 29.828L24 29.414L23.586 29.828C23.2145 30.1996 22.7735 30.4943 22.2881 30.6954C21.8027 30.8965 21.2824 31 20.757 31H18.05ZM25 27.586L25.828 28.414C26.0138 28.5998 26.2344 28.7473 26.4772 28.8478C26.72 28.9484 26.9802 29.0001 27.243 29H31.5C31.8293 29 32.1536 28.9187 32.4439 28.7633C32.7343 28.6079 32.9818 28.3832 33.1644 28.1091C33.3471 27.8351 33.4592 27.5201 33.4909 27.1923C33.5226 26.8645 33.4728 26.534 33.346 26.23L30.846 20.23C30.694 19.8657 30.4376 19.5545 30.1091 19.3356C29.7807 19.1167 29.3947 19 29 19H19C18.6053 19 18.2193 19.1167 17.8908 19.3356C17.5623 19.5545 17.306 19.8657 17.154 20.23L14.654 26.23C14.5272 26.534 14.4774 26.8645 14.5091 27.1923C14.5408 27.5201 14.6529 27.8351 14.8355 28.1091C15.0182 28.3832 15.2657 28.6079 15.556 28.7633C15.8464 28.9187 16.1707 29 16.5 29H20.757C21.0198 29.0001 21.28 28.9484 21.5228 28.8478C21.7656 28.7473 21.9862 28.5998 22.172 28.414L23 27.586V25.266C22.774 25.396 22.57 25.574 22.4 25.8L21.8 26.6C21.7068 26.7242 21.5861 26.825 21.4472 26.8944C21.3084 26.9639 21.1552 27 21 27H18C17.8296 26.9999 17.6621 26.9563 17.5133 26.8733C17.3645 26.7902 17.2394 26.6706 17.1498 26.5256C17.0602 26.3806 17.0092 26.2152 17.0015 26.045C16.9939 25.8748 17.0298 25.7054 17.106 25.553L18.106 23.553C18.1622 23.4314 18.2422 23.3224 18.3413 23.2323C18.4404 23.1422 18.5566 23.073 18.683 23.0287C18.8093 22.9844 18.9433 22.9659 19.077 22.9744C19.2107 22.9828 19.3412 23.018 19.461 23.0779C19.5808 23.1378 19.6873 23.2212 19.7743 23.323C19.8613 23.4249 19.9269 23.5431 19.9673 23.6708C20.0077 23.7985 20.022 23.933 20.0094 24.0664C19.9968 24.1997 19.9576 24.3291 19.894 24.447L19.618 25H20.5L20.8 24.6C22.4 22.467 25.6 22.467 27.2 24.6L27.5 25H28.382L28.106 24.447C28.0424 24.3291 28.0032 24.1997 27.9906 24.0664C27.978 23.933 27.9923 23.7985 28.0327 23.6708C28.0731 23.5431 28.1387 23.4249 28.2257 23.323C28.3126 23.2212 28.4192 23.1378 28.539 23.0779C28.6587 23.018 28.7893 22.9828 28.923 22.9744C29.0567 22.9659 29.1906 22.9844 29.317 23.0287C29.4434 23.073 29.5596 23.1422 29.6587 23.2323C29.7578 23.3224 29.8378 23.4314 29.894 23.553L30.894 25.553C30.9702 25.7054 31.0061 25.8748 30.9984 26.045C30.9908 26.2152 30.9397 26.3806 30.8502 26.5256C30.7606 26.6706 30.6355 26.7902 30.4867 26.8733C30.3379 26.9563 30.1704 26.9999 30 27H27C26.8447 27 26.6916 26.9639 26.5528 26.8944C26.4139 26.825 26.2931 26.7242 26.2 26.6L25.6 25.8C25.4383 25.5831 25.2341 25.4015 25 25.266V27.586Z" fill="white"/>
<rect x="34" y="28" width="24" height="24" rx="12" fill="#C2FF4E"/>
<path d="M54 45.2853L48.7166 40.001L53.9981 34.7176L51.2834 32L45.999 37.2834L40.7156 32L38 34.7176L43.2815 40.001L38 45.2844L40.7176 48L45.999 42.7166L51.2805 48L54 45.2853Z" fill="#101010"/>
</svg>
