<svg width="58" height="48" viewBox="0 0 58 48" fill="none" xmlns="http://www.w3.org/2000/svg">
<path d="M14.2166 44.7823C15.2211 44.7823 15.9043 44.2595 17.1094 43.1752L24.0608 37.0081H36.9377C42.924 37.0081 46.1383 33.6935 46.1383 27.8066V12.4183C46.1383 6.53234 42.924 3.21777 36.9377 3.21777H11.0623C5.09655 3.21777 1.86169 6.51263 1.86169 12.4183V27.8066C1.86169 33.7132 5.09569 37.0081 11.0623 37.0081H12.0266V42.2306C12.0266 43.7778 12.8306 44.7823 14.2166 44.7823ZM15.0394 41.1061V35.2801C15.0394 34.1958 14.6383 33.7732 13.5334 33.7732H11.082C7.00455 33.7732 5.09569 31.7041 5.09569 27.7869V12.4183C5.09569 8.5012 7.00455 6.45263 11.0828 6.45263H36.9377C40.9954 6.45263 42.9034 8.5012 42.9034 12.4183V27.7869C42.9034 31.7041 40.9954 33.7732 36.9377 33.7732H23.9194C22.8146 33.7732 22.2326 33.9343 21.468 34.7178L15.0394 41.1061ZM14.7788 19.1683C14.7788 21.3781 16.1451 23.0855 18.3548 23.0855C19.1588 23.0855 19.962 22.9458 20.4643 22.3226H20.6254C19.902 23.9101 18.4354 24.9343 17.1694 25.2558C16.4468 25.4563 16.2257 25.7786 16.2257 26.2398C16.2257 26.7421 16.6268 27.1243 17.19 27.1243C19.1588 27.1243 23.076 24.7929 23.076 19.8918C23.076 17.2603 21.3686 15.2315 18.8571 15.2315C16.5266 15.2315 14.7788 16.8583 14.7788 19.1683ZM25.2257 19.1683C25.2257 21.3781 26.5911 23.0855 28.8017 23.0855C29.6048 23.0855 30.4088 22.9458 30.9103 22.3226H31.0714C30.348 23.9101 28.8814 24.9343 27.6163 25.2558C26.8928 25.4563 26.6717 25.7786 26.6717 26.2398C26.6717 26.7421 27.0737 27.1243 27.636 27.1243C29.6048 27.1243 33.5417 24.7929 33.5417 19.8918C33.5417 17.2603 31.8146 15.2315 29.304 15.2315C26.9726 15.2315 25.2257 16.8583 25.2257 19.1683Z" fill="white"/>
<rect x="34" y="24" width="24" height="24" rx="12" fill="#C2FF4E"/>
<path d="M54 41.2853L48.7166 36.001L53.9981 30.7176L51.2834 28L45.999 33.2834L40.7156 28L38 30.7176L43.2815 36.001L38 41.2844L40.7176 44L45.999 38.7166L51.2805 44L54 41.2853Z" fill="#101010"/>
</svg>
