<svg width="58" height="48" viewBox="0 0 58 48" fill="none" xmlns="http://www.w3.org/2000/svg">
<path d="M10.5853 12.0002C7.67457 15.2511 6.04493 19.4494 6.00002 23.8127C5.88939 33.783 14.0297 41.9815 24 42.0002C33.9563 42.019 42 33.9536 42 24.0002C42 14.1996 34.1672 6.22427 24.4219 6.00021C24.367 5.99845 24.3124 6.00775 24.2612 6.02756C24.21 6.04737 24.1634 6.07728 24.124 6.11552C24.0846 6.15375 24.0534 6.19952 24.0321 6.25009C24.0108 6.30067 23.9999 6.35502 24 6.4099V14.2502" stroke="white" stroke-width="3" stroke-linecap="round" stroke-linejoin="round"/>
<path d="M21.8794 26.1218L14.4732 15.5281C14.3707 15.3813 14.3232 15.2031 14.3389 15.0248C14.3546 14.8465 14.4326 14.6794 14.5592 14.5528C14.6858 14.4263 14.8528 14.3483 15.0312 14.3325C15.2095 14.3168 15.3876 14.3643 15.5344 14.4668L26.1282 21.8731C26.7779 22.341 27.2174 23.046 27.3514 23.8355C27.4854 24.625 27.3032 25.4355 26.8443 26.0917C26.3853 26.7479 25.6865 27.1971 24.899 27.342C24.1114 27.4869 23.2985 27.316 22.636 26.8662C22.343 26.6632 22.0871 26.4114 21.8794 26.1218Z" fill="white"/>
<rect x="34" y="24" width="24" height="24" rx="12" fill="#C2FF4E"/>
<path d="M54 41.2853L48.7166 36.001L53.9981 30.7176L51.2834 28L45.999 33.2834L40.7156 28L38 30.7176L43.2815 36.001L38 41.2844L40.7176 44L45.999 38.7166L51.2805 44L54 41.2853Z" fill="#101010"/>
</svg>
